<svg id="Layer_1" data-name="Layer 1" xmlns="http://www.w3.org/2000/svg" viewBox="0 0 221 363"><defs><style>.cls-1{fill:#fefefe;}.cls-2{fill:#3c9bd6;}.cls-3{fill:#fed323;}.cls-4{fill:#d4b07f;}.cls-5{fill:#647a7d;}.cls-6{fill:#01040b;}.cls-7{fill:#fcfcfc;}.cls-8{fill:#fcfdfd;}.cls-9{fill:#fdfdfd;}.cls-10{fill:#02050c;}.cls-11{fill:#03060c;}</style></defs><title>homero</title><path class="cls-1" d="M69.43,129.06c2,1.9,3.12,4.23,4.83,6.08,1,1.07,1.95,2.19,3,3.18,1.58,1.42,2.55,1.42,4.08,0,3-2.88,6.11-5.77,9.06-8.76s3-2.87,5.23.48c2.66,4,6,7.51,8.9,11.32,1.14,1.49,2,1.46,3.66-.09,3.33-3.12,6.69-6.17,10.2-9.08,2-1.68,4-3.41,6-5.17.55-.49,1.53-1.22.86-1.91s-1.63-.12-2.26.58a40,40,0,0,1-4.16,3.76c-.41.35-.75.85-1.49.71-.12-1.82.51-3.56.69-5.35a.52.52,0,0,1,.5-.48,33.46,33.46,0,0,0,4-1.17,4.13,4.13,0,0,1,2.61.47c2.63,1.05,3.17,3,3.15,5.62,0,3.38.34,6.76.54,10.22-.94-.2-1.75-.42-2.57-.55-2.46-.4-4.07-1.59-4.35-4.24-.11-1-.54-2.45-1.6-2.15-.91.25-.27,1.66,0,2.54a70.14,70.14,0,0,1,2.15,13.43c.45,5.44.54,10.9.54,16.36a3,3,0,0,0,.81,2.06c7,7.86,10.72,17.32,13.25,27.35a82.45,82.45,0,0,1,2.37,18c0,1.3-.19,2.62-.29,3.93-.17,2.23-1.16,3.51-3.46,4.37a121.22,121.22,0,0,1-35,7.86,164,164,0,0,1-33.31-1c-18.55-2.59-36.45-7.6-53.25-16.09a40.59,40.59,0,0,1-5.89-3.69,3.84,3.84,0,0,1-1.65-3.22c-.11-4.27,1.1-8.27,2.4-12.25a50.9,50.9,0,0,1,8.42-15.61c.92-1.17,1.68-1.16,2.48-.09,4.12,5.5,9.42,9.68,15,13.51a1.26,1.26,0,0,1,.58,1.28,12.08,12.08,0,0,0,.76,5.35,2.4,2.4,0,0,1-.57,2.65,15.84,15.84,0,0,0-2.81,3.93,6.08,6.08,0,0,0,1.22,6.59,5.5,5.5,0,0,0,6.46.76A8.93,8.93,0,0,0,43.67,207a21.56,21.56,0,0,1,2.86-3.91c1.42-1.41,2.67-1.19,3.27.71.72,2.25,1.21,4.58,1.87,6.85C53,215.15,58,216.91,61,214c1.58-1.53,2-3.58,2.16-5.67a15.51,15.51,0,0,0-.4-5.12,5.05,5.05,0,0,1-.2-1.34c0-.91-.46-2,.79-2.5s2,.34,2.73,1.11a12,12,0,0,1,1.72,2.67,30.79,30.79,0,0,0,2,3.38c1.26,1.77,2.86,3.1,5.22,2.59a5.64,5.64,0,0,0,4.57-4.69c1-4.48-.13-8.6-2.33-12.5-.84-1.49-1.67-3-2.52-4.48-.37-.64-.38-1,.51-1.05a7.35,7.35,0,0,0,2-.58c1.92-.82,3.36-2.11,3.55-4.32A5.62,5.62,0,0,0,78,175.84a14.14,14.14,0,0,0-5.28-1.79C66,173,60.92,169.31,56.45,164.51a75.3,75.3,0,0,1-10-14c-.77-1.33-.41-2.45,1-3.67,1.07-.91,1.73.07,2.5.52.26.15.48.36.73.53,3.68,2.48,5.63,2.22,8.47-1.16A59,59,0,0,0,69.43,129.06Z"/><path class="cls-2" d="M129.46,224.91c-.76,2.4-2.43,3.92-3.87,5.59a73,73,0,0,1-25,18.55,65.78,65.78,0,0,1-21.18,5.74c-.8.08-1.6.16-.94,1.19,2.09,3.27,2.34,7,3,10.7,2.17,12.89.07,25.4-3.47,37.77,0,.05-.07.09-.07.13-.19,4.74-3.72,5.31-7.28,5.84a126.9,126.9,0,0,1-25.54,1.18c-7.31-.41-14.54-1.41-21.41-4.21-1.16-.47-1.63-.85-1.13-2.24,2.57-7.19,5.22-14.35,7.39-21.68a39.92,39.92,0,0,0,2-11.73,14.69,14.69,0,0,0-1.38-6.14c-3-6.58-6.15-13.12-9.07-19.74-4.32-9.8-7.13-20-7.23-30.8,0-1.47.45-1.45,1.52-.93A163.81,163.81,0,0,0,53,226.72a190.12,190.12,0,0,0,29.22,3.79,138.3,138.3,0,0,0,22.11-.41,131.4,131.4,0,0,0,24.1-5C128.69,225.05,129,225,129.46,224.91Z"/><path class="cls-3" d="M137.66,60.74a5.21,5.21,0,0,0-2.88.81c-3,1.54-5.65.86-8-1.41a20.44,20.44,0,0,0-7.15-5l-.7-.27c-.84-.3-2-.82-2.38.13-.25.59,1,1.06,1.74,1.3,2.89.94,4.94,3.07,7.14,5a11.46,11.46,0,0,0,4.37,2.63,1.06,1.06,0,0,1,.93,1.26c-.11,1.51,0,3-.14,4.55-.08,1-.46,1.49-1.62.72-7.17-4.74-14.85-8.28-23.46-9.49-.7-.1-1.41-.15-2.11-.22-1.28-.12-1.42-.47-.73-1.56.43-.67,1.21-.92,1.71-1.48s1.09-.85.6-1.48-1.18-.18-1.66.13A8.46,8.46,0,0,0,99.7,62.7c-.27,2-.31,4,1.11,5.85a1.76,1.76,0,0,0,.67-1.73c0-.5-.13-1-.19-1.5-.28-2.21,0-2.54,2.25-2.59A24.71,24.71,0,0,1,113,64.62a72.46,72.46,0,0,1,14.18,7,1.4,1.4,0,0,1,.63,2c-.58,1.49-1.8,2.4-2.88,3.45-.3.3-1,.66-.64,1.18s1.17.29,1.59-.19c1.24-1.42,2.46-1,3.88-.24,2.72,1.43,5.55,2.63,8.26,4.06,1.71.91,3.27,2.11,3.38,4.31.15,3.06-2.77,5.85-6.2,6s-6.6-1.28-9.46-3.15c-3.34-2.17-6.56-4.55-10.64-5.18-9.31-1.43-17.36.69-23.25,8.48a17.14,17.14,0,0,0-3.2,12.58c.51,4.94,2.07,9.43,5.51,13.12s7.69,5.44,12.45,6.34a34.53,34.53,0,0,0,8.31.35c.85,0,1.34,0,1.16,1.08a36.69,36.69,0,0,0-.25,3.93,5.69,5.69,0,0,1-2.51,4.61,44,44,0,0,0-6.07,5.49c-.67.69-1.11,1-1.87-.07-3.21-4.4-6.43-8.8-9.84-13-4.08-5.06-8.5-9.85-12.43-15.05a148.33,148.33,0,0,1-8.38-12.42,1.82,1.82,0,0,1-.1-1.83c2.58-5.89,5.34-11.71,7.65-17.72a1.52,1.52,0,0,1,1.63-1.19,5.12,5.12,0,0,0,2.91-.66c.37-.23.88-.47.62-1a.92.92,0,0,0-1.19-.41,7.86,7.86,0,0,1-2.62.63,5.74,5.74,0,0,1-5.43-4.24,6.46,6.46,0,0,1,2.35-7.14,5.9,5.9,0,0,1,7,.23,5.3,5.3,0,0,1,1.5,2.4c.17.48.43,1.28,1.06,1.06s.51-1,.35-1.63A6.18,6.18,0,0,0,87,63.48c-1.44-.66-1.63-1.56-1.08-2.91.35-.86.55-1.79.88-2.9A4.63,4.63,0,0,1,87.47,60c.09.51.1,1,.71,1.21a1.22,1.22,0,0,0,1.39-.69c.87-1.42,1.67-2.87,2.56-4.27,1.3-2,2.05-4.4,3.81-6.14.35-.33.6-.84,1.24-.86.41,5.25-1.49,10.22-1.85,15.61,1.91-1.13,2.18-2.85,2.46-4.48.58-3.33,1.22-6.65,1.49-10a8.72,8.72,0,0,0-.14-3c-.35-1.3-1.08-1.66-2.22-1a12.22,12.22,0,0,0-3.81,4.45c-1.24,2.06-2.42,4.16-3.79,6.54A13.3,13.3,0,0,1,88.55,51c1.26-8,2.43-16,6-23.44,2.59-5.46,6.08-10,12.38-11.6.08,2.36-1.08,4.72-.18,7.13,1-.58.82-1.61,1.06-2.45a18.82,18.82,0,0,0,.5-2.37c.39-2.52,1.59-4,4.38-4.13a46.62,46.62,0,0,1,7.38-.25c1,.11,1,.38.82,1.21-.45,1.64-1.33,3.15-1.44,4.9a2.93,2.93,0,0,0,.11,1.56c1.23-1.07,1.61-2.57,2.19-3.9,1.82-4.19,1.24-3.67,5.35-3a33.19,33.19,0,0,1,17.39,7.86c5.51,4.88,7.86,11.23,8.12,18.44a65.6,65.6,0,0,1-2,16.79c-.32,1.43-.45,2.56,1.25,3.5,2.17,1.2,2.25,6.17.34,7.76-.63.52-.84-.19-1.18-.49s-.63-.69-1-.48-.24.73-.13,1.11a15.51,15.51,0,0,0,.63,1.85,5.76,5.76,0,0,1,.5,2.64c-.14,2.29-.53,2.5-2.57,1.54a44.9,44.9,0,0,0-14.85-4.31c-.69-.07-1.12-.21-1-1.07a12.85,12.85,0,0,0-.51-4.64c-.34-1.13.69-.86,1.23-1C135.27,63.77,137.1,63.13,137.66,60.74Z"/><path class="cls-3" d="M8.08,147.37c0-7.29,2.8-13.55,7.19-19.18a74.24,74.24,0,0,1,13.65-13.9,1.83,1.83,0,0,1,2.5-.07C39.91,119.78,46,127.46,51,136.12c.62,1.08,1.7,2.21,1.66,3.29S51,141,50.15,141.79A34.1,34.1,0,0,0,45.51,147a4,4,0,0,0-.53,4.41c5.19,10.18,12.28,18.51,22.82,23.52a27.7,27.7,0,0,0,6.54,1.73c.25.05.51.06.75.12,2.44.57,3.77,2,3.59,4a4.79,4.79,0,0,1-4.29,4,2.16,2.16,0,0,1-1.87-.8c-.38-.42-.82-1.19-1.45-.71s-.35,1.45.11,2a38.12,38.12,0,0,1,3.59,5.58c1.88,3.44,3.25,7,3,11.06a8.75,8.75,0,0,1-.74,3.07c-1,2.32-3.76,2.59-5.62.6a20.92,20.92,0,0,1-2.35-3.87,18.58,18.58,0,0,0-2.95-3.81c-1-1-2.13-1.56-3.55-.93a3.44,3.44,0,0,0-2.15,3.34,36.89,36.89,0,0,0,.75,5.54,8.28,8.28,0,0,1-.8,5.14,3.31,3.31,0,0,1-3.08,2.11A3.59,3.59,0,0,1,54.09,211c-1-2-1.23-4.23-1.85-6.34a18.18,18.18,0,0,0-.8-2.43c-1-2.32-2.66-2.73-4.73-1.3A19,19,0,0,0,42,206.16a5.64,5.64,0,0,1-2.68,2.58c-2.67.9-4.91-1.14-4.53-4.07a7.19,7.19,0,0,1,2.17-4.21,4.21,4.21,0,0,0,.92-5.31c-.83-1.78-.38-3.66-.11-5.5.13-.85.21-1.7.28-2.56,0-.28.12-.67-.21-.81a.76.76,0,0,0-.92.35c-.92,2.3-1.91,1-3,.16a71.3,71.3,0,0,1-18.66-19.66c-3.23-5.08-6-10.37-6.89-16.43C8.17,149.6,8.16,148.48,8.08,147.37Z"/><path class="cls-2" d="M110.85,306.64a85.71,85.71,0,0,1-18.34-2c-1.4-.32-1.85-.74-1.49-2.3A98.48,98.48,0,0,0,93.45,278a66.09,66.09,0,0,0-2.37-16.71c-.48-1.66-1.25-3.19-1.88-4.78-.37-.93-.31-1.41.8-1.73a77.17,77.17,0,0,0,29.19-15.33,53.33,53.33,0,0,0,6.72-6.55c.65-.79,1-.71,1.51.12a88.42,88.42,0,0,1,9.65,21.56,91.44,91.44,0,0,1,3.58,18.82,105.73,105.73,0,0,1-.05,18c-.31,3.52-.75,7-1.37,10.5a1.44,1.44,0,0,1-1.28,1.35,101.73,101.73,0,0,1-19.23,3C116.1,306.44,113.47,306.52,110.85,306.64Z"/><path class="cls-3" d="M148,191a47.11,47.11,0,0,1-8.3-.59,2.41,2.41,0,0,1-2.3-1.91A56.83,56.83,0,0,0,129,170.83a16.71,16.71,0,0,0-2.75-3.21,4.88,4.88,0,0,1-1.89-4.78,76.56,76.56,0,0,0,.19-10.6,1.46,1.46,0,0,1,.87-1.52,96,96,0,0,1,15.74-6.85c1.26-.42,1.77,0,2.16,1,1.61,4.38,4.72,7.83,7.27,11.62.77,1.13,2,1.19,3.25,1.12,5.68-.34,11.32-1.15,17-1.8,2.26-.25,4.51-.56,6.77-.7a16.49,16.49,0,0,0,8.93-3.7c3.65-2.71,7.42-5.22,11.86-6.51a5.92,5.92,0,0,1,2.66-.37,3.29,3.29,0,0,1,2.8,2.27,3.16,3.16,0,0,1-1.17,3.5,28.51,28.51,0,0,1-4.12,2.51,7.21,7.21,0,0,0-3,2.46,2.16,2.16,0,0,0,1.32,3.43c1.58.54,3.21.2,4.81.27A29.18,29.18,0,0,1,209,160,4.13,4.13,0,0,1,211,161.1a3,3,0,0,1-1,4.91c-1.93.9-4,.81-6.07,1.12-4.23.65-5,2.42-2.48,5.89,1.15,1.59,2.46,3.07,3.68,4.61a7.9,7.9,0,0,1,.73,1.14,2.66,2.66,0,0,1-.13,3.11,2.89,2.89,0,0,1-3,1.05,5.38,5.38,0,0,1-2.69-1.32c-.91-.79-1.8-1.62-2.65-2.49-1-1-1.9-1.12-3.11-.14a18.35,18.35,0,0,1-12.37,4,12.12,12.12,0,0,0-6.84,1.69,45.41,45.41,0,0,1-12.73,4.6A54.89,54.89,0,0,1,148,191Z"/><path class="cls-4" d="M139.2,102.43a13.38,13.38,0,0,1-.29,3.16c-.16.92-.24,1.84-1.53,1.86a.63.63,0,0,0-.65.69c0,.41.36.59.72.7a13.46,13.46,0,0,1,2.86.93c1.51.85,2.6,2,2.51,3.82s-1.35,2.86-3,3.41a11.33,11.33,0,0,1-4.15.71,2,2,0,0,0-2,1.07,12,12,0,0,1-2.08,2.77,4.7,4.7,0,0,1-6.33.28,14.19,14.19,0,0,1-1.38-1.19c-.68-.7-1.11-.72-1.09.39,0,.67-.53.7-.91.79-7.32,1.62-14.55,1.84-21.42-1.73a17.66,17.66,0,0,1-10-15c-.45-5.5.6-10.54,5-14.41a20.16,20.16,0,0,1,11.19-4.85,26,26,0,0,1,14.48,2.09,9.36,9.36,0,0,1,2.18,1.35A19,19,0,0,0,136.23,94a1.36,1.36,0,0,1,1.53,1.06A20.75,20.75,0,0,1,139.2,102.43Z"/><path class="cls-5" d="M126,347.19c-4.31-.19-10.34-.57-16.12-2.69-3-1.12-5.2-3.43-7.56-5.47-.5-.43-1-.9-1.46-1.33-1.19-1.07-1.61-1-2.21.54a11.19,11.19,0,0,0-.57,3.73c-.11,3.35-.13,3.38-3.4,2.78-2.48-.45-5-.93-7.4-1.54s-3.39-1.93-3.1-4.33c.77-6.23,2.08-12.33,5.11-17.94a1.26,1.26,0,0,1,1.72-.7,83.51,83.51,0,0,0,26.57,2.58,52.63,52.63,0,0,0,13.86-2.2,2.34,2.34,0,0,1,2.27.46c7.37,5.46,12.8,12.26,14.82,21.42a1.76,1.76,0,0,1-1.31,2.39,35.46,35.46,0,0,1-8.13,1.65A111.6,111.6,0,0,1,126,347.19Z"/><path class="cls-5" d="M71.29,353c-9-.32-17.91-1.29-26.5-4.28-3.45-1.2-6-3.56-8.65-6-.52-.48-1-1.46-1.77-1.14s-.93,1.49-1,2.41c0,1.46-.07,2.93,0,4.4,0,.85-.18,1.22-1.14.89A88.64,88.64,0,0,1,21,344.78a1.8,1.8,0,0,1-1.15-1.61,46.62,46.62,0,0,1,2.34-17.74c.31-.9.72-1,1.55-.68a79.86,79.86,0,0,0,25,3.95,73.81,73.81,0,0,0,15.85-1,5.56,5.56,0,0,0,1.62-.37c1.79-1,3.21-.24,4.55.85a51.91,51.91,0,0,1,12.44,14.37,24.21,24.21,0,0,1,2.43,6.51c.32,1.31,0,2-1.44,2.35A50.67,50.67,0,0,1,71.29,353Z"/><path class="cls-1" d="M57.4,145.43c-5.48-14.09-13.85-25.78-26.68-34a38,38,0,0,0-3.74-2c-1.4-.67-1.45-.73-.1-1.65a28.29,28.29,0,0,1,7.57-3.33c6.84-2.18,13.79-3,20.84-1.08a19.71,19.71,0,0,1,10.19,6.46c3.22,3.93,3.74,8.59,3.08,13.34-1.12,8.17-4.82,15.21-10.22,21.39a9,9,0,0,1-.76.75A.44.44,0,0,1,57.4,145.43Z"/><path class="cls-2" d="M75.88,311a82.78,82.78,0,0,1-3.71,11.08c-.66,1.67-2.17,2.16-3.65,2.61-6.84,2.09-13.87,2.42-20.95,2.18A77.49,77.49,0,0,1,21.84,322c-1.41-.55-3.09-1-3.92-2.16s.57-2.63.94-3.95a41,41,0,0,1,2.26-6.38c.35-.76.6-1,1.43-.61,7.1,3,14.61,4.07,22.24,4.62a117.29,117.29,0,0,0,20.27-.34,68.63,68.63,0,0,0,10-2C75.33,311.08,75.57,311.06,75.88,311Z"/><path class="cls-6" d="M213.74,161.69A5.23,5.23,0,0,0,210,158.1a22.35,22.35,0,0,0-7-.95c-1.41,0-2.82,0-4.23.06a1.2,1.2,0,0,1-1.07-.45c-.24-.42.25-.71.5-1a9.79,9.79,0,0,1,2.65-2c1-.57,2-1.12,3-1.77a5.27,5.27,0,0,0,2.46-5.73,5.74,5.74,0,0,0-5.34-3.74,10.45,10.45,0,0,0-5.06,1.31c-4.85,2.35-9.87,4.42-13.93,8.14a4.17,4.17,0,0,1-2.35,1c-7.82,1-15.66,1.78-23.5,2.63-3.78.41-5.55-1-7-4-1.2-2.62-1.31-2.57,1-4.39,2.62-2.08,3.21-4.1,1.57-7-3.2-5.65-6.85-11-12-15.06-1.35-1.06-2.77-2-4.12-3.09-.31-.24-.8-.4-.69-1a2.26,2.26,0,0,1,2.44-2.12c.56,0,1.11,0,1.67,0,3.14-.1,5.41-1.6,6-3.94.7-2.76-.25-4.65-3.24-6.36a1.26,1.26,0,0,1-.77-1.54,21,21,0,0,0-1.24-12.19,1.39,1.39,0,0,1,.57-1.94,7.66,7.66,0,0,0,3.43-6,2.12,2.12,0,0,1,1.21-1.74c2.47-1.42,4.53-3.21,5.28-6.13a1,1,0,0,1,.3-.51c2.31-1.86,2.53-4.37,2.06-7a1.93,1.93,0,0,1,.67-1.81c3.26-3.59,3.23-6.56-.12-10a3,3,0,0,1-.91-3,67.74,67.74,0,0,0,2.28-14.92,27,27,0,0,0-4.76-16.54c-.36-.5-.72-1-1.12-1.47a2.55,2.55,0,0,1-.55-1.12C137.67,11.57,121,10.35,107.54,12.94a7.62,7.62,0,0,1-2,1,18.06,18.06,0,0,0-6.91,4.48c-5.8,5.86-8.3,13.21-9.84,21A31.67,31.67,0,0,1,87,46.18c-.27-.33-.44-.52-.58-.72-.61-.91-1.09-2.11-2.47-1.85s-1.69,1.46-2.07,2.57a27.06,27.06,0,0,0-.93,5c-.46,3.19-1.39,6.31-1.39,9.57,0,.47,0,1.13.39,1.22.6.13.65-.61.87-1a1.94,1.94,0,0,0,.2-.57c.53-2.62,1-5.25,1.61-7.85.48-2,.49-4.2,1.7-6.2,1.74,1.94,1.86,4.08,1.71,6.28-.21,3-1.23,5.81-1.83,8.72-.16.73-.38.94-1.13,1-3.55.43-5.72,2.49-6.64,5.93a8.05,8.05,0,0,0,3.11,9c.57.43,1.66.7,1.12,1.81-1.84,3.76-3.24,7.71-5.17,11.43-.55,1.06-1,1-1.94.46-2.08-1.29-3.77-1-5.39.82-2.49,2.8-5.08,5.51-7.39,8.45-1.39,1.77-2.5,2.23-4.79,1.41-5.2-1.86-10.64-1.59-16-.69-6.48,1.08-12.47,3.29-17.45,7.77-1.94,1.75-2.33,3.21-1.48,5.68a6.84,6.84,0,0,0,.72,1.66c.68,1,.3,1.61-.39,2.34-2.05,2.17-4,4.39-6.08,6.57-8.9,9.59-11.12,20.64-7.07,33,1.77,5.38,4.94,10,8.22,14.56a1.53,1.53,0,0,1-.06,2.27A54.45,54.45,0,0,0,5,200.34c-.85,5.54.33,7.67,4.64,10.13a5.43,5.43,0,0,0,.51.32c1.8.87,2.42,2.23,2.36,4.28a61.32,61.32,0,0,0,3.23,21A168.26,168.26,0,0,0,27.23,262.3a22.2,22.2,0,0,1,1.95,15.87,193.74,193.74,0,0,1-6.61,21.18c-2.18,6.12-4.44,12.21-6.62,18.33-1,2.76-.6,3.47,2.15,4.64.56.23,1.11.49,1.65.76.7.34,1.08.74.69,1.66a19,19,0,0,0-.88,3.19c-1.2,5-2.36,10-1.72,15.26A3.83,3.83,0,0,0,20,346.48c4,1.77,7.89,3.84,12.29,4.5,2.05.31,2.16.27,2.39-1.75.18-1.58.29-3.16.46-5,4,4.3,8.69,6.51,13.88,7.92a90.33,90.33,0,0,0,23.26,2.75A45.62,45.62,0,0,0,85,353.26c2.49-.69,3.13-1.91,2.57-4.43-.27-1.21-.57-2.42-.91-3.8,2.8.47,5.46,1,8.15,1.34,4.46.55,4.29.69,4.86-3.88.1-.89-.07-2.15.66-2.46s1.44.75,2,1.35a21.63,21.63,0,0,0,10.91,6.16A68.16,68.16,0,0,0,136.45,349a39.5,39.5,0,0,0,12.13-3c1.84-.8,2.11-1.26,1.9-3.24a15.27,15.27,0,0,0-.25-1.65,32.39,32.39,0,0,0-8.12-15.15,73.06,73.06,0,0,0-6.9-6.46,5.6,5.6,0,0,0,2.42-3.3,113.59,113.59,0,0,0,5.19-29.58,99.85,99.85,0,0,0-1.21-20.86,91.36,91.36,0,0,0-7.49-24.47,68.33,68.33,0,0,0-5.28-8.82c-.88-1.3-1-2.44.21-3.62a11.56,11.56,0,0,0,2.34-3.86,2.94,2.94,0,0,1,1.76-1.69,35.34,35.34,0,0,0,5.84-2.83,2.6,2.6,0,0,0,1.31-1.73,33.61,33.61,0,0,0,.83-11.13c-.42-4.64-1.32-9.19-2.19-13.75-.22-1.19,0-1.58,1.3-1.41a60.65,60.65,0,0,0,14.81,0c7.53-.89,14.78-2.66,21.36-6.6a6.44,6.44,0,0,1,3.91-.94,21.67,21.67,0,0,0,14.39-4.06,1.29,1.29,0,0,1,2,.18,17.59,17.59,0,0,0,3.53,3.08,5.62,5.62,0,0,0,7.09-.68c1.66-1.8,1.62-4.39-.14-6.78-1.32-1.79-2.7-3.54-4-5.34-1.1-1.52-1.07-1.58.74-2,2.07-.45,4.17-.75,6.22-1.27C213.32,167.27,214.6,164.84,213.74,161.69ZM86.8,318.76c1,.36,1,.91.64,1.83a54.69,54.69,0,0,0-4.35,13.32,14.25,14.25,0,0,1-.47,3.43,1.48,1.48,0,0,1-.94-.74c-2.39-4-6.06-6.74-9.55-9.66-.37-.31-1.1-.46-.51-1.25,3.23-4.32,4.86-9.36,6.33-14.44,2.14-7.35,4.4-14.68,5.44-22.29,1.44-10.56,1.44-21.07-2.11-31.31-.26-.74-.3-1,.64-1.09a16.65,16.65,0,0,0,3-.62c2.15-.53,2.62-.37,3.19,1.73a114.45,114.45,0,0,1,2.81,12.69c2.06,13.14-.21,25.86-3.47,38.51a65.16,65.16,0,0,1-1.85,6.7C85,317,85.2,318.17,86.8,318.76Z"/><path class="cls-2" d="M112,321.1c-8.1-.27-15.88-.85-23.33-3.61-1.35-.5-1.54-1-1.13-2.28.87-2.67,1.67-5.38,2.37-8.1.23-.88.56-1,1.36-.87,3.46.63,6.93,1.3,10.42,1.8,5.88.84,11.79.5,17.68.1a94.34,94.34,0,0,0,14.68-2c1.08-.26,2.14-.58,3.21-.88.8-.23,1.29-.09,1.18.89a51.42,51.42,0,0,1-3.09,11.17c-.18.48-.64.56-1.09.69a74.46,74.46,0,0,1-17.85,2.85Z"/><path class="cls-1" d="M70.23,125.17a22,22,0,0,0,.34-7.4A17.21,17.21,0,0,0,61.81,104c-1.15-.68-1.06-1.09-.34-2,2.25-2.74,4.82-5.19,7.14-7.85.78-.89,1.1-.44,1.47.28a94.38,94.38,0,0,0,6.21,10.89,150.32,150.32,0,0,0,14.09,18c1.89,2,1.81,2.34-.23,4.2-3.32,3-6.6,6.13-9.8,9.28-.93.92-1.38,1.13-2.36,0a114.51,114.51,0,0,1-7.09-9.44A3.59,3.59,0,0,1,70.23,125.17Z"/><path class="cls-1" d="M123.7,139.84c1.28.36,2.47.72,3.68,1,2.26.6,3,.13,3.24-2.27.29-2.74-.26-5.45-.37-8.18-.07-1.56-.18-3.13-.29-4.69a1.29,1.29,0,0,1,.51-1.18c1.8-1.53,3.2-1.67,5.1-.38a39.87,39.87,0,0,1,8.94,8.79,52.22,52.22,0,0,1,4.33,6c.85,1.51.72,1.62-1,1.81a50.56,50.56,0,0,0-16.77,5.27c-1.9.93-3.81,1.83-5.73,2.73-.38.19-.89.58-1-.26C124.07,145.7,123.46,142.86,123.7,139.84Z"/><path class="cls-3" d="M148.6,78.06c-.06,1.71-3,5.52-4.61,6.11a.67.67,0,0,1-.91-.28c-1.87-3.51-5.46-4.37-8.74-5.72a16.07,16.07,0,0,1-3.8-1.78c-.53-.41-1.67-.51-1.31-1.54s.87-2.27,2.36-2.45a13.45,13.45,0,0,1,4.2.38,47.21,47.21,0,0,1,12.1,4.46C148.24,77.42,148.68,77.51,148.6,78.06Z"/><path class="cls-6" d="M111.09,12.53c1.75-5.16,10.3-10.46,16-5.93a51.89,51.89,0,0,0-4.24,5.33q1.29.06,2.58.18l.07-.15c.72-1.56,2-3.52,3.54-3.58a1.58,1.58,0,0,1,1.29.8,11.7,11.7,0,0,1,1.83,4.4,11,11,0,0,0,1.66.45,14.5,14.5,0,0,0-.95-2.68,27.25,27.25,0,0,0-1.25-3.18c-.56-1.08-.06-1.26.79-1.45,5.16-1.15,10.3,1.62,12.6,6.83a16.48,16.48,0,0,1,1.15,7.52c.67.71,1.31.85,1.91,1.65a2.86,2.86,0,0,1,0-1.3,15.06,15.06,0,0,0-.69-7.45,12.65,12.65,0,0,0-16.45-8.74,2.49,2.49,0,0,1-2.5-.38,11.1,11.1,0,0,0-10.33-1.57,14.64,14.64,0,0,0-8.23,7,8.06,8.06,0,0,1-2.31,2.64"/><path class="cls-7" d="M55.09,145.26c0,2.1-.34,2.43-1.81,1.84-1.29-.51-3.11-.9-3.33-2.28s1.64-1.8,2.61-2.63,1.51-.66,1.85.59A14.71,14.71,0,0,1,55.09,145.26Z"/><path class="cls-8" d="M24.45,110.92a3.39,3.39,0,0,1,.45,0c1.21.17,2.76.42,3.16,1.42s-1.17,1.52-1.95,2.15c-2.33,1.88-2.79,1.68-3.49-1.29C22.26,111.71,22.89,110.92,24.45,110.92Z"/><path class="cls-9" d="M147.88,142.57c.74.05,1.84-.21,2.23.64s-.27,1.63-.82,2.29c-2.06,2.49-2.06,2.94-3.8-.27C144.28,143,144.63,142.62,147.88,142.57Z"/><path class="cls-7" d="M72.3,92.08c.75.15,1.58.39,1.84,1.11s-.27,1.64-.64,2.4c-.28.56-.56.17-.78-.1A7.56,7.56,0,0,1,71.46,93C71.22,92.2,71.52,91.89,72.3,92.08Z"/><path class="cls-10" d="M85.91,73.7c-.87,1.22-2,.76-2.78.15-1.93-1.43-1.18-3.36-.59-5.32a7.34,7.34,0,0,0-1,.56c-.34.28-.74.87-1.1.55s0-1,.28-1.48c.72-1.23,2.71-1.61,4.68-1a3.45,3.45,0,0,1,2.67,3.24c0,.37,0,.93-.44,1s-.78-.4-1-.81c-.27-.56-.17-1.39-1-1.54-1.17-.2-1.76.53-2.16,1.49a1.58,1.58,0,0,0,.73,2.29C84.77,73.11,85.52,73,85.91,73.7Z"/><path class="cls-11" d="M142.16,67.21c-.39-.14-1.08.33-1.19-.48s.42-.91,1-1.12a9.85,9.85,0,0,1,3.09-.55c1.46,0,2.91-.17,4.37-.28.38,0,.79.06.9.39s-.29.59-.58.77a2,2,0,0,1-.69.29Z"/><path class="cls-6" d="M184.9,160.38c3.64,0,7.28-.51,10.85.22,3.16.64,4.5,4.78,2.69,7.94a5.12,5.12,0,0,1-5.19,2.69,5.51,5.51,0,0,0-5,1.92c-1.48,1.59-3.42,2.9-5.93,2-.37-.14-.89-.2-.89-.65s.5-.6.89-.64c2.92-.33,5-2.09,6.82-4.15.51-.58,1.1-.38,1.68-.33a7.35,7.35,0,0,0,4.23-.69,3.35,3.35,0,0,0,1.92-3.48,2.89,2.89,0,0,0-2.37-2.59c-2.09-.69-4.3-.49-6.43-.87A5.88,5.88,0,0,1,184.9,160.38Z"/><path class="cls-10" d="M129.28,118.34a2.11,2.11,0,0,1-1.5-3.43,7.54,7.54,0,0,1,5-3.3c.67-.14,1.49,0,1.62.7.11.58-.67.74-1.19.92s-.86.3-1.27.48-.72.57-.19,1a1.71,1.71,0,0,1,.65,2.26C131.89,118,130.88,118.34,129.28,118.34Z"/><path class="cls-1" d="M69.43,129.06c2,1.9,3.12,4.23,4.83,6.08,1,1.07,1.95,2.19,3,3.18,1.58,1.42,2.55,1.42,4.08,0,3-2.88,6.11-5.77,9.06-8.76s3-2.87,5.23.48c2.66,4,6,7.51,8.9,11.32,1.14,1.49,2,1.46,3.66-.09,3.33-3.12,6.69-6.17,10.2-9.08,2-1.68,4-3.41,6-5.17.55-.49,1.53-1.22.86-1.91s-1.63-.12-2.26.58a40,40,0,0,1-4.16,3.76c-.41.35-.75.85-1.49.71-.12-1.82.51-3.56.69-5.35a.52.52,0,0,1,.5-.48,33.46,33.46,0,0,0,4-1.17,4.13,4.13,0,0,1,2.61.47c2.63,1.05,3.17,3,3.15,5.62,0,3.38.34,6.76.54,10.22-.94-.2-1.75-.42-2.57-.55-2.46-.4-4.07-1.59-4.35-4.24-.11-1-.54-2.45-1.6-2.15-.91.25-.27,1.66,0,2.54a70.14,70.14,0,0,1,2.15,13.43c.45,5.44.54,10.9.54,16.36a3,3,0,0,0,.81,2.06c7,7.86,10.72,17.32,13.25,27.35a82.45,82.45,0,0,1,2.37,18c0,1.3-.19,2.62-.29,3.93-.17,2.23-1.16,3.51-3.46,4.37a121.22,121.22,0,0,1-35,7.86,164,164,0,0,1-33.31-1c-18.55-2.59-36.45-7.6-53.25-16.09a40.59,40.59,0,0,1-5.89-3.69,3.84,3.84,0,0,1-1.65-3.22c-.11-4.27,1.1-8.27,2.4-12.25a50.9,50.9,0,0,1,8.42-15.61c.92-1.17,1.68-1.16,2.48-.09,4.12,5.5,9.42,9.68,15,13.51a1.26,1.26,0,0,1,.58,1.28,12.08,12.08,0,0,0,.76,5.35,2.4,2.4,0,0,1-.57,2.65,15.84,15.84,0,0,0-2.81,3.93,6.08,6.08,0,0,0,1.22,6.59,5.5,5.5,0,0,0,6.46.76A8.93,8.93,0,0,0,43.67,207a21.56,21.56,0,0,1,2.86-3.91c1.42-1.41,2.67-1.19,3.27.71.72,2.25,1.21,4.58,1.87,6.85C53,215.15,58,216.91,61,214c1.58-1.53,2-3.58,2.16-5.67a15.51,15.51,0,0,0-.4-5.12,5.05,5.05,0,0,1-.2-1.34c0-.91-.46-2,.79-2.5s2,.34,2.73,1.11a12,12,0,0,1,1.72,2.67,30.79,30.79,0,0,0,2,3.38c1.26,1.77,2.86,3.1,5.22,2.59a5.64,5.64,0,0,0,4.57-4.69c1-4.48-.13-8.6-2.33-12.5-.84-1.49-1.67-3-2.52-4.48-.37-.64-.38-1,.51-1.05a7.35,7.35,0,0,0,2-.58c1.92-.82,3.36-2.11,3.55-4.32A5.62,5.62,0,0,0,78,175.84a14.14,14.14,0,0,0-5.28-1.79C66,173,60.92,169.31,56.45,164.51a75.3,75.3,0,0,1-10-14c-.77-1.33-.41-2.45,1-3.67,1.07-.91,1.73.07,2.5.52.26.15.48.36.73.53,3.68,2.48,5.63,2.22,8.47-1.16A59,59,0,0,0,69.43,129.06Z"/><path class="cls-2" d="M129.46,224.91c-.76,2.4-2.43,3.92-3.87,5.59a73,73,0,0,1-25,18.55,65.78,65.78,0,0,1-21.18,5.74c-.8.08-1.6.16-.94,1.19,2.09,3.27,2.34,7,3,10.7,2.17,12.89.07,25.4-3.47,37.77,0,.05-.07.09-.07.13-.19,4.74-3.72,5.31-7.28,5.84a126.9,126.9,0,0,1-25.54,1.18c-7.31-.41-14.54-1.41-21.41-4.21-1.16-.47-1.63-.85-1.13-2.24,2.57-7.19,5.22-14.35,7.39-21.68a39.92,39.92,0,0,0,2-11.73,14.69,14.69,0,0,0-1.38-6.14c-3-6.58-6.15-13.12-9.07-19.74-4.32-9.8-7.13-20-7.23-30.8,0-1.47.45-1.45,1.52-.93A163.81,163.81,0,0,0,53,226.72a190.12,190.12,0,0,0,29.22,3.79,138.3,138.3,0,0,0,22.11-.41,131.4,131.4,0,0,0,24.1-5C128.69,225.05,129,225,129.46,224.91Z"/><path class="cls-3" d="M137.66,60.74a5.21,5.21,0,0,0-2.88.81c-3,1.54-5.65.86-8-1.41a20.44,20.44,0,0,0-7.15-5l-.7-.27c-.84-.3-2-.82-2.38.13-.25.59,1,1.06,1.74,1.3,2.89.94,4.94,3.07,7.14,5a11.46,11.46,0,0,0,4.37,2.63,1.06,1.06,0,0,1,.93,1.26c-.11,1.51,0,3-.14,4.55-.08,1-.46,1.49-1.62.72-7.17-4.74-14.85-8.28-23.46-9.49-.7-.1-1.41-.15-2.11-.22-1.28-.12-1.42-.47-.73-1.56.43-.67,1.21-.92,1.71-1.48s1.09-.85.6-1.48-1.18-.18-1.66.13A8.46,8.46,0,0,0,99.7,62.7c-.27,2-.31,4,1.11,5.85a1.76,1.76,0,0,0,.67-1.73c0-.5-.13-1-.19-1.5-.28-2.21,0-2.54,2.25-2.59A24.71,24.71,0,0,1,113,64.62a72.46,72.46,0,0,1,14.18,7,1.4,1.4,0,0,1,.63,2c-.58,1.49-1.8,2.4-2.88,3.45-.3.3-1,.66-.64,1.18s1.17.29,1.59-.19c1.24-1.42,2.46-1,3.88-.24,2.72,1.43,5.55,2.63,8.26,4.06,1.71.91,3.27,2.11,3.38,4.31.15,3.06-2.77,5.85-6.2,6s-6.6-1.28-9.46-3.15c-3.34-2.17-6.56-4.55-10.64-5.18-9.31-1.43-17.36.69-23.25,8.48a17.14,17.14,0,0,0-3.2,12.58c.51,4.94,2.07,9.43,5.51,13.12s7.69,5.44,12.45,6.34a34.53,34.53,0,0,0,8.31.35c.85,0,1.34,0,1.16,1.08a36.69,36.69,0,0,0-.25,3.93,5.69,5.69,0,0,1-2.51,4.61,44,44,0,0,0-6.07,5.49c-.67.69-1.11,1-1.87-.07-3.21-4.4-6.43-8.8-9.84-13-4.08-5.06-8.5-9.85-12.43-15.05a148.33,148.33,0,0,1-8.38-12.42,1.82,1.82,0,0,1-.1-1.83c2.58-5.89,5.34-11.71,7.65-17.72a1.52,1.52,0,0,1,1.63-1.19,5.12,5.12,0,0,0,2.91-.66c.37-.23.88-.47.62-1a.92.92,0,0,0-1.19-.41,7.86,7.86,0,0,1-2.62.63,5.74,5.74,0,0,1-5.43-4.24,6.46,6.46,0,0,1,2.35-7.14,5.9,5.9,0,0,1,7,.23,5.3,5.3,0,0,1,1.5,2.4c.17.48.43,1.28,1.06,1.06s.51-1,.35-1.63A6.18,6.18,0,0,0,87,63.48c-1.44-.66-1.63-1.56-1.08-2.91.35-.86.55-1.79.88-2.9A4.63,4.63,0,0,1,87.47,60c.09.51.1,1,.71,1.21a1.22,1.22,0,0,0,1.39-.69c.87-1.42,1.67-2.87,2.56-4.27,1.3-2,2.05-4.4,3.81-6.14.35-.33.6-.84,1.24-.86.41,5.25-1.49,10.22-1.85,15.61,1.91-1.13,2.18-2.85,2.46-4.48.58-3.33,1.22-6.65,1.49-10a8.72,8.72,0,0,0-.14-3c-.35-1.3-1.08-1.66-2.22-1a12.22,12.22,0,0,0-3.81,4.45c-1.24,2.06-2.42,4.16-3.79,6.54A13.3,13.3,0,0,1,88.55,51c1.26-8,2.43-16,6-23.44,2.59-5.46,6.08-10,12.38-11.6.08,2.36-1.08,4.72-.18,7.13,1-.58.82-1.61,1.06-2.45a18.82,18.82,0,0,0,.5-2.37c.39-2.52,1.59-4,4.38-4.13a46.62,46.62,0,0,1,7.38-.25c1,.11,1,.38.82,1.21-.45,1.64-1.33,3.15-1.44,4.9a2.93,2.93,0,0,0,.11,1.56c1.23-1.07,1.61-2.57,2.19-3.9,1.82-4.19,1.24-3.67,5.35-3a33.19,33.19,0,0,1,17.39,7.86c5.51,4.88,7.86,11.23,8.12,18.44a65.6,65.6,0,0,1-2,16.79c-.32,1.43-.45,2.56,1.25,3.5,2.17,1.2,2.25,6.17.34,7.76-.63.52-.84-.19-1.18-.49s-.63-.69-1-.48-.24.73-.13,1.11a15.51,15.51,0,0,0,.63,1.85,5.76,5.76,0,0,1,.5,2.64c-.14,2.29-.53,2.5-2.57,1.54a44.9,44.9,0,0,0-14.85-4.31c-.69-.07-1.12-.21-1-1.07a12.85,12.85,0,0,0-.51-4.64c-.34-1.13.69-.86,1.23-1C135.27,63.77,137.1,63.13,137.66,60.74Z"/><path class="cls-3" d="M8.08,147.37c0-7.29,2.8-13.55,7.19-19.18a74.24,74.24,0,0,1,13.65-13.9,1.83,1.83,0,0,1,2.5-.07C39.91,119.78,46,127.46,51,136.12c.62,1.08,1.7,2.21,1.66,3.29S51,141,50.15,141.79A34.1,34.1,0,0,0,45.51,147a4,4,0,0,0-.53,4.41c5.19,10.18,12.28,18.51,22.82,23.52a27.7,27.7,0,0,0,6.54,1.73c.25.05.51.06.75.12,2.44.57,3.77,2,3.59,4a4.79,4.79,0,0,1-4.29,4,2.16,2.16,0,0,1-1.87-.8c-.38-.42-.82-1.19-1.45-.71s-.35,1.45.11,2a38.12,38.12,0,0,1,3.59,5.58c1.88,3.44,3.25,7,3,11.06a8.75,8.75,0,0,1-.74,3.07c-1,2.32-3.76,2.59-5.62.6a20.92,20.92,0,0,1-2.35-3.87,18.58,18.58,0,0,0-2.95-3.81c-1-1-2.13-1.56-3.55-.93a3.44,3.44,0,0,0-2.15,3.34,36.89,36.89,0,0,0,.75,5.54,8.28,8.28,0,0,1-.8,5.14,3.31,3.31,0,0,1-3.08,2.11A3.59,3.59,0,0,1,54.09,211c-1-2-1.23-4.23-1.85-6.34a18.18,18.18,0,0,0-.8-2.43c-1-2.32-2.66-2.73-4.73-1.3A19,19,0,0,0,42,206.16a5.64,5.64,0,0,1-2.68,2.58c-2.67.9-4.91-1.14-4.53-4.07a7.19,7.19,0,0,1,2.17-4.21,4.21,4.21,0,0,0,.92-5.31c-.83-1.78-.38-3.66-.11-5.5.13-.85.21-1.7.28-2.56,0-.28.12-.67-.21-.81a.76.76,0,0,0-.92.35c-.92,2.3-1.91,1-3,.16a71.3,71.3,0,0,1-18.66-19.66c-3.23-5.08-6-10.37-6.89-16.43C8.17,149.6,8.16,148.48,8.08,147.37Z"/><path class="cls-2" d="M110.85,306.64a85.71,85.71,0,0,1-18.34-2c-1.4-.32-1.85-.74-1.49-2.3A98.48,98.48,0,0,0,93.45,278a66.09,66.09,0,0,0-2.37-16.71c-.48-1.66-1.25-3.19-1.88-4.78-.37-.93-.31-1.41.8-1.73a77.17,77.17,0,0,0,29.19-15.33,53.33,53.33,0,0,0,6.72-6.55c.65-.79,1-.71,1.51.12a88.42,88.42,0,0,1,9.65,21.56,91.44,91.44,0,0,1,3.58,18.82,105.73,105.73,0,0,1-.05,18c-.31,3.52-.75,7-1.37,10.5a1.44,1.44,0,0,1-1.28,1.35,101.73,101.73,0,0,1-19.23,3C116.1,306.44,113.47,306.52,110.85,306.64Z"/><path class="cls-3" d="M148,191a47.11,47.11,0,0,1-8.3-.59,2.41,2.41,0,0,1-2.3-1.91A56.83,56.83,0,0,0,129,170.83a16.71,16.71,0,0,0-2.75-3.21,4.88,4.88,0,0,1-1.89-4.78,76.56,76.56,0,0,0,.19-10.6,1.46,1.46,0,0,1,.87-1.52,96,96,0,0,1,15.74-6.85c1.26-.42,1.77,0,2.16,1,1.61,4.38,4.72,7.83,7.27,11.62.77,1.13,2,1.19,3.25,1.12,5.68-.34,11.32-1.15,17-1.8,2.26-.25,4.51-.56,6.77-.7a16.49,16.49,0,0,0,8.93-3.7c3.65-2.71,7.42-5.22,11.86-6.51a5.92,5.92,0,0,1,2.66-.37,3.29,3.29,0,0,1,2.8,2.27,3.16,3.16,0,0,1-1.17,3.5,28.51,28.51,0,0,1-4.12,2.51,7.21,7.21,0,0,0-3,2.46,2.16,2.16,0,0,0,1.32,3.43c1.58.54,3.21.2,4.81.27A29.18,29.18,0,0,1,209,160,4.13,4.13,0,0,1,211,161.1a3,3,0,0,1-1,4.91c-1.93.9-4,.81-6.07,1.12-4.23.65-5,2.42-2.48,5.89,1.15,1.59,2.46,3.07,3.68,4.61a7.9,7.9,0,0,1,.73,1.14,2.66,2.66,0,0,1-.13,3.11,2.89,2.89,0,0,1-3,1.05,5.38,5.38,0,0,1-2.69-1.32c-.91-.79-1.8-1.62-2.65-2.49-1-1-1.9-1.12-3.11-.14a18.35,18.35,0,0,1-12.37,4,12.12,12.12,0,0,0-6.84,1.69,45.41,45.41,0,0,1-12.73,4.6A54.89,54.89,0,0,1,148,191Z"/><path class="cls-4" d="M139.2,102.43a13.38,13.38,0,0,1-.29,3.16c-.16.92-.24,1.84-1.53,1.86a.63.63,0,0,0-.65.69c0,.41.36.59.72.7a13.46,13.46,0,0,1,2.86.93c1.51.85,2.6,2,2.51,3.82s-1.35,2.86-3,3.41a11.33,11.33,0,0,1-4.15.71,2,2,0,0,0-2,1.07,12,12,0,0,1-2.08,2.77,4.7,4.7,0,0,1-6.33.28,14.19,14.19,0,0,1-1.38-1.19c-.68-.7-1.11-.72-1.09.39,0,.67-.53.7-.91.79-7.32,1.62-14.55,1.84-21.42-1.73a17.66,17.66,0,0,1-10-15c-.45-5.5.6-10.54,5-14.41a20.16,20.16,0,0,1,11.19-4.85,26,26,0,0,1,14.48,2.09,9.36,9.36,0,0,1,2.18,1.35A19,19,0,0,0,136.23,94a1.36,1.36,0,0,1,1.53,1.06A20.75,20.75,0,0,1,139.2,102.43Z"/><path class="cls-5" d="M126,347.19c-4.31-.19-10.34-.57-16.12-2.69-3-1.12-5.2-3.43-7.56-5.47-.5-.43-1-.9-1.46-1.33-1.19-1.07-1.61-1-2.21.54a11.19,11.19,0,0,0-.57,3.73c-.11,3.35-.13,3.38-3.4,2.78-2.48-.45-5-.93-7.4-1.54s-3.39-1.93-3.1-4.33c.77-6.23,2.08-12.33,5.11-17.94a1.26,1.26,0,0,1,1.72-.7,83.51,83.51,0,0,0,26.57,2.58,52.63,52.63,0,0,0,13.86-2.2,2.34,2.34,0,0,1,2.27.46c7.37,5.46,12.8,12.26,14.82,21.42a1.76,1.76,0,0,1-1.31,2.39,35.46,35.46,0,0,1-8.13,1.65A111.6,111.6,0,0,1,126,347.19Z"/><path class="cls-5" d="M71.29,353c-9-.32-17.91-1.29-26.5-4.28-3.45-1.2-6-3.56-8.65-6-.52-.48-1-1.46-1.77-1.14s-.93,1.49-1,2.41c0,1.46-.07,2.93,0,4.4,0,.85-.18,1.22-1.14.89A88.64,88.64,0,0,1,21,344.78a1.8,1.8,0,0,1-1.15-1.61,46.62,46.62,0,0,1,2.34-17.74c.31-.9.72-1,1.55-.68a79.86,79.86,0,0,0,25,3.95,73.81,73.81,0,0,0,15.85-1,5.56,5.56,0,0,0,1.62-.37c1.79-1,3.21-.24,4.55.85a51.91,51.91,0,0,1,12.44,14.37,24.21,24.21,0,0,1,2.43,6.51c.32,1.31,0,2-1.44,2.35A50.67,50.67,0,0,1,71.29,353Z"/><path class="cls-1" d="M57.4,145.43c-5.48-14.09-13.85-25.78-26.68-34a38,38,0,0,0-3.74-2c-1.4-.67-1.45-.73-.1-1.65a28.29,28.29,0,0,1,7.57-3.33c6.84-2.18,13.79-3,20.84-1.08a19.71,19.71,0,0,1,10.19,6.46c3.22,3.93,3.74,8.59,3.08,13.34-1.12,8.17-4.82,15.21-10.22,21.39a9,9,0,0,1-.76.75A.44.44,0,0,1,57.4,145.43Z"/><path class="cls-2" d="M75.88,311a82.78,82.78,0,0,1-3.71,11.08c-.66,1.67-2.17,2.16-3.65,2.61-6.84,2.09-13.87,2.42-20.95,2.18A77.49,77.49,0,0,1,21.84,322c-1.41-.55-3.09-1-3.92-2.16s.57-2.63.94-3.95a41,41,0,0,1,2.26-6.38c.35-.76.6-1,1.43-.61,7.1,3,14.61,4.07,22.24,4.62a117.29,117.29,0,0,0,20.27-.34,68.63,68.63,0,0,0,10-2C75.33,311.08,75.57,311.06,75.88,311Z"/><path class="cls-2" d="M112,321.1c-8.1-.27-15.88-.85-23.33-3.61-1.35-.5-1.54-1-1.13-2.28.87-2.67,1.67-5.38,2.37-8.1.23-.88.56-1,1.36-.87,3.46.63,6.93,1.3,10.42,1.8,5.88.84,11.79.5,17.68.1a94.34,94.34,0,0,0,14.68-2c1.08-.26,2.14-.58,3.21-.88.8-.23,1.29-.09,1.18.89a51.42,51.42,0,0,1-3.09,11.17c-.18.48-.64.56-1.09.69a74.46,74.46,0,0,1-17.85,2.85Z"/><path class="cls-1" d="M70.23,125.17a22,22,0,0,0,.34-7.4A17.21,17.21,0,0,0,61.81,104c-1.15-.68-1.06-1.09-.34-2,2.25-2.74,4.82-5.19,7.14-7.85.78-.89,1.1-.44,1.47.28a94.38,94.38,0,0,0,6.21,10.89,150.32,150.32,0,0,0,14.09,18c1.89,2,1.81,2.34-.23,4.2-3.32,3-6.6,6.13-9.8,9.28-.93.92-1.38,1.13-2.36,0a114.51,114.51,0,0,1-7.09-9.44A3.59,3.59,0,0,1,70.23,125.17Z"/><path class="cls-1" d="M123.7,139.84c1.28.36,2.47.72,3.68,1,2.26.6,3,.13,3.24-2.27.29-2.74-.26-5.45-.37-8.18-.07-1.56-.18-3.13-.29-4.69a1.29,1.29,0,0,1,.51-1.18c1.8-1.53,3.2-1.67,5.1-.38a39.87,39.87,0,0,1,8.94,8.79,52.22,52.22,0,0,1,4.33,6c.85,1.51.72,1.62-1,1.81a50.56,50.56,0,0,0-16.77,5.27c-1.9.93-3.81,1.83-5.73,2.73-.38.19-.89.58-1-.26C124.07,145.7,123.46,142.86,123.7,139.84Z"/><path class="cls-3" d="M148.6,78.06c-.06,1.71-3,5.52-4.61,6.11a.67.67,0,0,1-.91-.28c-1.87-3.51-5.46-4.37-8.74-5.72a16.07,16.07,0,0,1-3.8-1.78c-.53-.41-1.67-.51-1.31-1.54s.87-2.27,2.36-2.45a13.45,13.45,0,0,1,4.2.38,47.21,47.21,0,0,1,12.1,4.46C148.24,77.42,148.68,77.51,148.6,78.06Z"/><path class="cls-6" d="M111.09,12.53c1.75-5.16,10.3-10.46,16-5.93a51.89,51.89,0,0,0-4.24,5.33q1.29.06,2.58.18l.07-.15c.72-1.56,2-3.52,3.54-3.58a1.58,1.58,0,0,1,1.29.8,11.7,11.7,0,0,1,1.83,4.4,11,11,0,0,0,1.66.45,14.5,14.5,0,0,0-.95-2.68,27.25,27.25,0,0,0-1.25-3.18c-.56-1.08-.06-1.26.79-1.45,5.16-1.15,10.3,1.62,12.6,6.83a16.48,16.48,0,0,1,1.15,7.52c.67.71,1.31.85,1.91,1.65a2.86,2.86,0,0,1,0-1.3,15.06,15.06,0,0,0-.69-7.45,12.65,12.65,0,0,0-16.45-8.74,2.49,2.49,0,0,1-2.5-.38,11.1,11.1,0,0,0-10.33-1.57,14.64,14.64,0,0,0-8.23,7,8.06,8.06,0,0,1-2.31,2.64"/><path class="cls-7" d="M55.09,145.26c0,2.1-.34,2.43-1.81,1.84-1.29-.51-3.11-.9-3.33-2.28s1.64-1.8,2.61-2.63,1.51-.66,1.85.59A14.71,14.71,0,0,1,55.09,145.26Z"/><path class="cls-8" d="M24.45,110.92a3.39,3.39,0,0,1,.45,0c1.21.17,2.76.42,3.16,1.42s-1.17,1.52-1.95,2.15c-2.33,1.88-2.79,1.68-3.49-1.29C22.26,111.71,22.89,110.92,24.45,110.92Z"/><path class="cls-9" d="M147.88,142.57c.74.05,1.84-.21,2.23.64s-.27,1.63-.82,2.29c-2.06,2.49-2.06,2.94-3.8-.27C144.28,143,144.63,142.62,147.88,142.57Z"/><path class="cls-7" d="M72.3,92.08c.75.15,1.58.39,1.84,1.11s-.27,1.64-.64,2.4c-.28.56-.56.17-.78-.1A7.56,7.56,0,0,1,71.46,93C71.22,92.2,71.52,91.89,72.3,92.08Z"/><path class="cls-10" d="M85.91,73.7c-.87,1.22-2,.76-2.78.15-1.93-1.43-1.18-3.36-.59-5.32a7.34,7.34,0,0,0-1,.56c-.34.28-.74.87-1.1.55s0-1,.28-1.48c.72-1.23,2.71-1.61,4.68-1a3.45,3.45,0,0,1,2.67,3.24c0,.37,0,.93-.44,1s-.78-.4-1-.81c-.27-.56-.17-1.39-1-1.54-1.17-.2-1.76.53-2.16,1.49a1.58,1.58,0,0,0,.73,2.29C84.77,73.11,85.52,73,85.91,73.7Z"/><path class="cls-11" d="M142.16,67.21c-.39-.14-1.08.33-1.19-.48s.42-.91,1-1.12a9.85,9.85,0,0,1,3.09-.55c1.46,0,2.91-.17,4.37-.28.38,0,.79.06.9.39s-.29.59-.58.77a2,2,0,0,1-.69.29Z"/><path class="cls-6" d="M184.9,160.38c3.64,0,7.28-.51,10.85.22,3.16.64,4.5,4.78,2.69,7.94a5.12,5.12,0,0,1-5.19,2.69,5.51,5.51,0,0,0-5,1.92c-1.48,1.59-3.42,2.9-5.93,2-.37-.14-.89-.2-.89-.65s.5-.6.89-.64c2.92-.33,5-2.09,6.82-4.15.51-.58,1.1-.38,1.68-.33a7.35,7.35,0,0,0,4.23-.69,3.35,3.35,0,0,0,1.92-3.48,2.89,2.89,0,0,0-2.37-2.59c-2.09-.69-4.3-.49-6.43-.87A5.88,5.88,0,0,1,184.9,160.38Z"/><path class="cls-10" d="M129.28,118.34a2.11,2.11,0,0,1-1.5-3.43,7.54,7.54,0,0,1,5-3.3c.67-.14,1.49,0,1.62.7.11.58-.67.74-1.19.92s-.86.3-1.27.48-.72.57-.19,1a1.71,1.71,0,0,1,.65,2.26C131.89,118,130.88,118.34,129.28,118.34Z"/></svg>